<?xml version="1.0" standalone="no"?>
<!DOCTYPE svg PUBLIC "-//W3C//DTD SVG 20010904//EN"
 "http://www.w3.org/TR/2001/REC-SVG-20010904/DTD/svg10.dtd">
<svg version="1.0" xmlns="http://www.w3.org/2000/svg"
 width="500.000000pt" height="500.000000pt" viewBox="0 0 500.000000 500.000000"
 preserveAspectRatio="xMidYMid meet">

<g transform="translate(0.000000,500.000000) scale(0.100000,-0.100000)"
fill="#000000" stroke="none">
<path d="M4455 2830 c-204 -22 -428 -30 -995 -35 -644 -6 -1501 -27 -1835 -45
-104 -5 -280 -15 -390 -20 -110 -6 -267 -18 -350 -26 -82 -8 -222 -21 -310
-28 -195 -18 -255 -31 -255 -57 0 -10 10 -24 23 -30 33 -18 38 -31 22 -56 -21
-31 -19 -40 10 -47 21 -5 25 -12 25 -45 0 -59 15 -66 108 -51 42 6 111 23 152
36 94 30 272 50 322 36 22 -6 76 -7 144 -1 161 12 184 11 191 -6 8 -24 -26
-55 -61 -56 -17 0 -40 -5 -51 -10 -14 -6 6 -8 60 -4 44 2 149 8 233 11 l152 7
0 33 0 33 98 -5 c53 -3 133 -10 176 -14 44 -4 84 -6 90 -4 6 2 19 18 29 35
l18 32 112 -5 c61 -3 172 -1 246 3 110 6 138 5 155 -7 11 -8 43 -14 71 -14 28
0 57 -6 63 -12 19 -19 152 -29 392 -30 196 -1 220 1 278 21 63 21 65 22 120 4
85 -27 425 -26 466 1 27 17 29 17 62 0 31 -17 36 -17 87 -1 30 9 86 17 125 17
57 0 72 3 72 15 0 22 36 18 70 -7 25 -18 32 -19 45 -8 9 8 46 14 88 15 80 2
127 12 127 27 0 5 9 21 19 34 17 22 19 39 17 134 -2 70 -8 115 -16 125 -14 17
-81 18 -205 5z m-2929 -405 c-3 -8 -17 -15 -31 -15 -37 0 -35 38 3 42 29 3 37
-4 28 -27z"/>
<path d="M2385 2460 c-11 -5 -48 -9 -82 -9 -69 -1 -84 -15 -28 -25 45 -9 205
4 205 16 0 9 -44 28 -63 27 -7 0 -21 -4 -32 -9z"/>
<path d="M1057 2443 c-10 -9 3 -23 22 -23 9 0 25 6 35 13 17 12 15 14 -16 15
-20 1 -38 -1 -41 -5z"/>
<path d="M956 2401 c-10 -11 -13 -22 -8 -25 15 -9 42 4 42 19 0 23 -16 26 -34
6z"/>
</g>
</svg>
